<svg t="1760686280240" class="icon" viewBox="0 0 1024 1024" version="1.1" xmlns="http://www.w3.org/2000/svg" p-id="13274" width="200" height="200"><path d="M128 64a64 64 0 0 0-64 64v768a64 64 0 0 0 64 64h768a64 64 0 0 0 64-64V128a64 64 0 0 0-64-64H128z m0-64h768a128 128 0 0 1 128 128v768a128 128 0 0 1-128 128H128a128 128 0 0 1-128-128V128a128 128 0 0 1 128-128z" fill="#333333" p-id="13275"></path><path d="M512 659.2c97.536 0 188.16-47.552 274.368-147.2C700.16 412.352 609.536 364.8 512 364.8S323.84 412.352 237.632 512C323.84 611.648 414.464 659.2 512 659.2z m0 64c-117.568 0-225.152-56.448-322.752-169.344a64 64 0 0 1 0-83.712C286.848 357.248 394.432 300.8 512 300.8c117.568 0 225.152 56.448 322.752 169.344a64 64 0 0 1 0 83.712C737.152 666.752 629.568 723.2 512 723.2z" fill="#333333" p-id="13276"></path><path d="M512 622.08a110.08 110.08 0 1 1 0-220.16 110.08 110.08 0 0 1 0 220.16z m0-51.2a58.88 58.88 0 1 0 0-117.76 58.88 58.88 0 0 0 0 117.76z" fill="#333333" p-id="13277"></path><path d="M660.288 191.168a32 32 0 1 1 55.424 32l-352 609.664a32 32 0 1 1-55.424-32l352-609.664z" fill="#333333" p-id="13278"></path></svg>